<svg width="77" height="62" viewBox="0 0 77 62" fill="none" xmlns="http://www.w3.org/2000/svg">
<path d="M17.2632 1.49534C22.5692 -0.256728 28.2246 0.140114 33.72 0.0454426C38.2389 -0.116666 42.7949 0.114177 47.1577 1.40715C51.0163 2.37202 56.2109 2.24104 58.1127 6.54534C59.8583 6.8527 61.737 6.82287 63.3777 7.54004C64.4822 8.91213 62.5958 10.3439 61.7908 11.3684C61.9636 12.5784 62.1888 13.5588 62.9963 14.5431C66.6911 17.0007 70.8478 14.429 74.5438 13.3565C75.4883 12.782 76.6209 13.7806 76.246 14.8194C77.0049 15.1293 77.2122 16.0721 76.7707 16.74C75.7776 18.9953 73.25 19.7954 71.0334 20.1638C72.4642 20.8524 74.0115 21.2583 75.583 21.4334C76.5646 21.5903 76.69 22.9948 75.9107 23.5084C76.2869 24.2995 76.5813 25.6313 75.5677 26.0619C73.4202 26.4691 71.3367 25.56 69.2391 25.2319C67.4167 24.9245 65.762 24.0245 64.3875 22.7938C66.0781 27.1837 68.3164 31.5075 68.6005 36.2968C69.0625 42.8888 65.7876 49.2706 61.0216 53.5931C54.9785 59.1606 46.6752 61.2991 38.7111 61.8451C28.78 62.4481 18.3433 61.4223 9.52178 56.4216C4.38344 53.6424 1.01889 48.1709 0.28173 42.3778C-0.957102 34.1829 2.09007 26.1644 5.5071 18.8941C4.77762 18.8954 4.06478 18.2548 4.24651 17.4753C4.69571 16.5131 5.4431 15.7285 6.20202 15.0074C4.30665 15.259 4.37192 12.7353 5.91919 12.2775C4.22091 10.6603 6.98269 8.81875 8.54019 8.70074C10.2039 5.12916 13.6401 2.70791 17.2632 1.49534ZM11.3148 8.26499C17.9057 7.58673 24.5426 6.50903 31.1758 7.36756C39.2947 8.20015 47.3586 6.37286 55.4738 6.44419C54.0302 4.88276 51.8341 4.56762 49.8581 4.21487C46.8762 3.80247 44.0094 2.77535 41.0147 2.43816C35.6563 2.11006 30.2722 2.27216 24.9086 2.4213C19.9226 2.61454 14.4451 4.00997 11.3148 8.26499ZM30.262 18.6724C25.8634 18.8954 21.5121 20.0924 17.0892 19.6178C14.0829 19.3441 11.1407 18.4571 8.10506 18.5167C4.95807 25.2968 1.7586 32.5242 2.24364 40.1939C2.54311 44.4359 4.0187 48.748 7.04795 51.7866C9.0265 53.7306 11.4773 55.0923 13.9934 56.1842C22.3376 59.691 31.6032 60.2473 40.5144 59.442C45.6143 58.9245 50.7258 57.6549 55.214 55.0806C62.2809 51.1342 67.7572 42.9004 66.1664 34.4954C64.7778 28.369 61.7985 22.7743 59.5832 16.9358C49.9515 19.1288 40.0268 18.02 30.262 18.6724Z" fill="white"/>
<path d="M40.0178 25.1839C40.7293 24.7949 41.5638 25.42 41.5791 26.1929C42.0501 30.4881 42.3777 34.821 42.196 39.1434C42.109 41.3792 40.8215 43.7123 38.5703 44.2998C34.8116 45.428 30.8302 42.9251 29.3226 39.4313C27.6231 35.6172 28.0134 31.2935 27.9277 27.2161C27.8035 25.8791 29.9792 25.6145 30.1059 26.9645C30.3861 31.6838 29.3098 37.5457 33.2669 41.0343C34.7003 42.2494 36.8644 42.7487 38.5767 41.8604C39.7593 41.2275 39.9666 39.7205 40.0421 38.5015C40.1099 34.4319 39.8156 30.3623 39.3894 26.3174C39.2896 25.8363 39.5878 25.3707 40.0178 25.1839Z" fill="white"/>
<path d="M49.0057 25.4926C50.5735 24.7676 51.1686 27.6376 49.4613 27.6441C48.3006 27.7439 47.8949 25.87 49.0057 25.4926Z" fill="white"/>
<path d="M17.6484 26.1293C19.1125 25.4809 19.8407 28.0357 18.3728 28.4105C17.0111 28.8476 16.3929 26.591 17.6484 26.1293Z" fill="white"/>
<path d="M47.8386 43.2272C48.4196 42.9588 49.2642 43.2804 49.3845 43.9548C49.8145 46.3981 48.998 48.9646 47.4329 50.8425C44.6365 54.1093 40.197 55.5099 36.0236 55.3789C32.0831 55.1571 27.9456 54.5372 24.5746 52.3131C22.3363 50.7971 20.5753 48.1891 20.7161 45.3839C21.0744 44.1143 23.1029 44.5682 22.9019 45.9027C23.465 50.2666 28.167 52.1289 31.9411 52.6814C36.1157 53.5594 40.8228 53.3739 44.3614 50.7063C46.2235 49.3225 47.5941 46.9972 47.2498 44.598C47.1487 44.0754 47.3202 43.4503 47.8386 43.2272Z" fill="white"/>
</svg>
