<svg width="181" height="67" viewBox="0 0 181 67" fill="none" xmlns="http://www.w3.org/2000/svg">
<path d="M18.6168 1.61593C24.3388 -0.277431 30.4376 0.151413 36.3638 0.0491074C41.2371 -0.126074 46.1504 0.123384 50.8552 1.52063C55.0163 2.56332 60.6182 2.42177 62.6691 7.07319C64.5516 7.40534 66.5777 7.37311 68.347 8.14811C69.538 9.63085 67.5037 11.1781 66.6356 12.2852C66.8219 13.5928 67.0648 14.6523 67.9357 15.716C71.9201 18.3717 76.4028 15.5926 80.3886 14.4336C81.4071 13.8128 82.6286 14.8919 82.2242 16.0145C83.0426 16.3494 83.2662 17.3683 82.79 18.09C81.7191 20.5271 78.9933 21.3918 76.6029 21.7899C78.1459 22.534 79.8145 22.9727 81.5093 23.1619C82.5678 23.3315 82.7031 24.8492 81.8626 25.4042C82.2683 26.2591 82.5858 27.6984 81.4927 28.1637C79.1769 28.6037 76.93 27.6213 74.668 27.2667C72.7027 26.9346 70.9182 25.962 69.4359 24.632C71.2591 29.3759 73.6729 34.0484 73.9793 39.2239C74.4775 46.3475 70.9458 53.2441 65.8062 57.9151C59.2892 63.9316 50.3349 66.2426 41.7464 66.8326C31.0365 67.4843 19.7816 66.3757 10.2684 60.9717C4.72714 57.9684 1.09877 52.0557 0.30382 45.7954C-1.03215 36.9396 2.25394 28.2744 5.93889 20.4178C5.15222 20.4192 4.38348 19.7269 4.57946 18.8846C5.06389 17.8448 5.86988 16.9969 6.6883 16.2177C4.64433 16.4896 4.71471 13.7623 6.38329 13.2676C4.55186 11.52 7.53018 9.52994 9.2098 9.40241C11.004 5.54281 14.7096 2.92629 18.6168 1.61593ZM12.2019 8.93152C19.3096 8.19856 26.4669 7.03395 33.6201 7.96172C42.3757 8.86145 51.0719 6.8868 59.8233 6.96388C58.2665 5.27653 55.8982 4.93598 53.7673 4.55478C50.5516 4.10912 47.4601 2.99917 44.2306 2.63479C38.452 2.28022 32.6458 2.4554 26.8617 2.61657C21.4847 2.82539 15.5777 4.33335 12.2019 8.93152ZM32.6347 20.1782C27.8912 20.4192 23.1988 21.7128 18.4291 21.1998C15.1871 20.9041 12.0142 19.9455 8.74055 20.01C5.34681 27.3368 1.89649 35.1471 2.41956 43.4353C2.74251 48.0195 4.3338 52.6793 7.60056 55.9629C9.73425 58.0637 12.3772 59.5352 15.0905 60.7152C24.089 64.5048 34.0811 65.106 43.691 64.2357C49.1908 63.6765 54.703 62.3045 59.5431 59.5226C67.1642 55.258 73.0698 46.3601 71.3543 37.2773C69.8568 30.6569 66.6439 24.611 64.2549 18.3016C53.868 20.6715 43.1651 19.4733 32.6347 20.1782Z" fill="#283B2A"/>
<path d="M102.813 6.43694C102.973 4.63467 105.884 4.48332 106.095 6.36267C106.734 13.9726 106.952 21.6259 106.799 29.2624C106.64 31.0451 103.841 31.2132 103.529 29.4222C103.47 26.1792 103.558 22.9264 103.462 19.6793C100.892 19.9456 98.3137 20.0899 95.7329 20.1838C95.7053 22.6097 95.8323 25.0496 95.668 27.4672C95.3313 29.1265 92.7118 29.1293 92.433 27.4237C92.2688 25.0104 92.4206 22.5761 92.3557 20.153C90.8445 19.6779 90.8362 17.3332 92.364 16.868C92.3943 13.7161 92.3074 10.5572 92.4068 7.40815C92.6055 5.64372 95.3782 5.51899 95.6777 7.30164C95.8253 10.4535 95.7011 13.625 95.7398 16.7853C98.2847 16.7222 100.826 16.5484 103.359 16.3004C103.245 13.0084 103.01 9.72195 102.813 6.43694Z" fill="#283B2A"/>
<path d="M129.296 9.22864C129.252 8.34572 130.065 7.62257 130.893 7.56371C133.725 7.34648 136.81 7.34929 139.273 8.99039C142.112 10.6679 143.585 14.812 141.548 17.671C139.569 20.544 135.777 20.9938 132.615 20.4487C132.589 22.5046 132.664 24.5661 132.58 26.6193C132.251 28.3136 129.554 28.322 129.325 26.559C129.269 20.785 129.328 15.0054 129.296 9.22864ZM132.617 16.9899C134.323 17.2786 136.216 17.5252 137.796 16.6339C138.967 16.0775 139.595 14.5261 138.87 13.3643C137.716 11.08 134.864 10.7674 132.61 10.8599C132.624 12.9032 132.607 14.9466 132.617 16.9899Z" fill="#283B2A"/>
<path d="M103.912 40.3381C103.906 39.4482 104.611 38.6031 105.511 38.5835C107.677 39.1202 110.238 39.3655 111.719 41.3331C113.498 43.2952 113.165 46.7133 110.938 48.1862C113.566 50.8308 113.741 54.9314 113.368 58.4365C112.804 60.3382 109.745 59.5618 110.146 57.59C110.387 54.6736 110.158 50.2029 106.57 49.6171C106.342 52.2701 106.19 54.9426 105.806 57.5732C105.402 59.2689 102.736 59.0251 102.577 57.3139C103.067 51.6604 103.573 46.0042 103.912 40.3381ZM107.105 42.4417C107.057 43.5586 106.931 44.6714 106.908 45.7898C107.835 45.7982 109.157 45.7421 109.556 44.7176C109.632 43.3751 108.251 42.5888 107.105 42.4417Z" fill="#283B2A"/>
<path d="M173.137 7.68424C173.415 5.77686 176.497 5.99128 176.437 7.97014C176.497 13.1709 176.851 18.6282 174.961 23.5711C173.491 27.519 168.873 29.8286 164.909 28.5042C162.497 27.7026 160.461 25.7153 159.672 23.26C159.409 21.4451 162.268 20.6281 162.872 22.4275C163.972 25.4813 168.208 26.5002 170.515 24.2326C171.565 23.2768 172.178 21.9076 172.458 20.523C170.079 22.2776 166.607 21.2181 165.044 18.8468C163.082 15.9374 162.608 12.1899 162.974 8.75215C163.192 6.98632 165.918 6.94707 166.231 8.67647C166.079 11.464 166.186 14.5233 167.777 16.9184C168.488 18.0662 170.419 18.5259 171.105 17.102C172.766 14.2921 173.258 10.9132 173.137 7.68424Z" fill="#283B2A"/>
<path d="M117.329 8.50831C117.742 7.17973 119.782 7.00595 120.336 8.31351C122.407 13.2004 123.809 18.3703 124.718 23.6048C124.896 24.4218 124.989 25.4561 124.263 26.0349C123.392 26.8407 121.737 26.297 121.588 25.0861C121.452 24.2032 121.286 23.3259 121.126 22.4472C119.59 22.1613 118.026 22.1024 116.476 21.9314C115.814 23.6286 115.427 25.4407 114.677 27.0958C113.802 28.5477 111.338 27.6059 111.664 25.9144C113.455 20.0745 115.438 14.3384 117.329 8.50831ZM117.549 18.6506C118.462 18.7109 119.372 18.844 120.287 18.8959C119.971 17.3501 119.496 15.8421 119 14.3482C118.397 15.7328 118.003 17.2085 117.549 18.6506Z" fill="#283B2A"/>
<path d="M146.636 7.54131C149.452 7.17833 152.569 7.1517 154.992 8.8825C158.035 10.7661 159.241 15.4974 156.613 18.2414C154.318 20.7794 150.699 20.9841 147.537 21.2097C147.481 22.5817 147.698 23.9916 147.426 25.3384C146.911 26.88 144.431 26.6571 144.238 25.0146C144.167 19.7143 144.221 14.4084 144.214 9.10673C144.249 7.88186 145.587 7.31708 146.636 7.54131ZM147.539 10.8445C147.555 13.1555 147.542 15.4651 147.547 17.7747C149.801 17.5589 152.484 17.7033 154.177 15.9024C155.211 14.8569 154.7 13.1541 153.759 12.2362C152.175 10.5488 149.649 10.6077 147.539 10.8445Z" fill="#283B2A"/>
<path d="M122.708 39.3781C126.633 39.1301 129.208 43.3134 129.059 46.9333C129.298 50.9541 127.698 56.0428 123.327 56.9706C120.585 57.3405 117.072 56.4086 116.029 53.5062C115.231 49.9128 115.138 45.6118 117.485 42.5594C118.908 41.0977 120.572 39.5155 122.708 39.3781ZM122.535 42.8061C121.46 43.3905 120.6 44.3701 119.714 45.2362C118.655 46.9488 118.912 49.0762 118.951 51.0032C118.646 53.963 123.337 54.6287 124.565 52.2799C125.831 50.1259 126.007 47.3524 125.418 44.9545C125.028 43.738 123.91 42.5104 122.535 42.8061Z" fill="#283B2A"/>
<path d="M144.729 41.8853C144.674 40.9814 145.449 40.1111 146.35 40.1363C148.77 40.1882 151.233 39.9485 153.62 40.4292C155.138 40.9169 154.947 43.3835 153.392 43.6484C151.607 43.6245 149.82 43.4157 148.031 43.5194C147.942 44.5747 147.976 45.6356 147.951 46.6937C150.087 46.9039 152.23 47.1758 154.312 47.707C155.778 48.3054 155.457 50.8434 153.813 50.9107C151.824 50.7285 149.864 50.1679 147.855 50.0726C147.819 51.3816 147.795 52.6905 147.78 54.0009C149.697 54.1537 151.635 54.1831 153.537 54.455C155.165 54.902 154.938 57.555 153.27 57.7246C150.97 57.6363 148.669 57.4429 146.373 57.2985C145.175 57.2453 144.37 56.0764 144.411 54.923C144.53 50.5785 144.594 46.2298 144.729 41.8853Z" fill="#283B2A"/>
<path d="M157.928 42.0213C157.743 41.1131 158.449 40.2148 159.326 40.0845C161.573 39.7859 164.236 40.0326 165.77 41.9428C167.344 43.8207 167.017 46.7596 165.395 48.4988C167.752 50.2814 169.39 53.296 168.998 56.3259C168.627 58.0034 165.979 57.918 165.761 56.197C165.952 53.68 164.249 51.1559 161.833 50.5127C161.847 52.7564 162.019 55.0057 161.945 57.2453C161.638 58.9746 158.893 58.9578 158.676 57.178C158.541 52.1243 158.396 47.0595 157.928 42.0213ZM161.384 43.5082C161.474 44.6602 161.568 45.8136 161.624 46.967C162.599 46.7778 163.552 45.8991 163.439 44.8228C163.47 43.8053 162.149 43.2587 161.384 43.5082Z" fill="#283B2A"/>
<path d="M43.1555 27.2149C43.9228 26.7945 44.8227 27.47 44.8392 28.3052C45.3471 32.9468 45.7004 37.6291 45.5044 42.3001C45.4106 44.7163 44.0222 47.2375 41.5945 47.8723C37.5411 49.0916 33.2475 46.3868 31.6217 42.6113C29.7889 38.4896 30.2098 33.8171 30.1174 29.411C29.9835 27.9661 32.3297 27.6802 32.4664 29.1391C32.7686 34.239 31.6079 40.5736 35.8753 44.3435C37.421 45.6566 39.7548 46.1962 41.6014 45.2362C42.8767 44.5523 43.1003 42.9238 43.1817 41.6064C43.2548 37.2087 42.9374 32.8109 42.4778 28.4398C42.3702 27.9198 42.6917 27.4167 43.1555 27.2149Z" fill="#283B2A"/>
<path d="M89.641 38.7783C92.9712 38.2598 96.8301 38.2527 99.6359 40.4278C100.839 41.2042 100.308 43.3779 98.8879 43.4788C97.792 43.6245 97.153 42.5076 96.1524 42.2973C94.3541 41.804 92.422 41.7872 90.5878 42.0339C87.9269 42.9742 87.2465 46.2186 87.2409 48.7566C87.1885 50.9892 87.0381 54.0457 89.4698 55.0926C91.6794 56.1437 94.6288 57.2228 96.8301 55.649C97.4539 54.1691 97.3904 52.4453 97.6071 50.8574C96.1428 50.9373 94.7033 51.4769 93.2376 51.3395C91.7498 51.0116 91.6353 48.6698 93.0527 48.168C95.1587 47.7532 97.2952 47.4631 99.4303 47.2361C100.457 47.0721 101.368 48.1652 101.161 49.1701C100.881 51.5638 100.734 53.9925 100.195 56.3441C99.6414 58.3524 97.585 59.4231 95.686 59.7062C92.6124 60.0818 89.4533 59.147 86.8766 57.4583C84.4517 55.82 83.8389 52.6429 83.8927 49.8778C83.6871 45.5866 85.0921 40.1503 89.641 38.7783Z" fill="#283B2A"/>
<path d="M170.315 43.2742C171.098 40.652 173.916 38.8596 176.579 39.3739C178.469 39.7481 180.335 41.6667 179.772 43.7198C179.006 45.3371 176.546 44.7345 176.498 42.9532C174.375 41.6863 172.202 45.1311 174.084 46.6713C175.281 47.8583 177.206 47.4911 178.575 48.4035C181.402 49.9493 181.846 54.4367 179.438 56.5613C177.023 58.8611 172.598 57.9642 171.182 54.9301C170.074 53.9869 170.692 51.9309 172.158 51.8819C174.047 51.7123 174.072 54.7577 176.034 54.4662C177.704 54.6652 178.255 52.1356 176.927 51.3409C175.802 50.8574 174.537 50.814 173.418 50.2997C170.864 49.1869 169.374 45.9636 170.315 43.2742Z" fill="#283B2A"/>
<path d="M136.306 39.6724C139.384 38.9409 142.733 41.8054 142.573 44.9867C142.341 46.6264 139.76 46.733 139.392 45.1325C139.275 43.6442 137.515 42.2805 136.189 43.3246C134.063 44.9601 134.312 48.0447 134.426 50.4524C134.51 52.1986 135.722 54.2574 137.681 54.0247C138.93 53.7276 138.95 52.1608 139.212 51.1293C139.534 49.5008 142.278 49.5583 142.416 51.2835C142.452 53.7851 141.147 56.7393 138.518 57.3181C135.955 57.8577 133.174 56.3946 132.044 54.0149C130.783 51.4643 130.87 48.4834 131.252 45.7281C131.665 42.9953 133.51 40.2484 136.306 39.6724Z" fill="#283B2A"/>
<path d="M52.8481 27.5484C54.5388 26.765 55.1805 29.8664 53.3394 29.8734C52.0877 29.9814 51.6502 27.9563 52.8481 27.5484Z" fill="#283B2A"/>
<path d="M19.0322 28.2365C20.611 27.5358 21.3963 30.2967 19.8133 30.7017C18.3449 31.174 17.6783 28.7355 19.0322 28.2365Z" fill="#283B2A"/>
<path d="M51.5894 46.7133C52.216 46.4232 53.1269 46.7708 53.2566 47.4995C53.7203 50.1399 52.8398 52.9134 51.1519 54.9427C48.1363 58.4729 43.3487 59.9865 38.8481 59.8449C34.5987 59.6053 30.1367 58.9354 26.5014 56.5319C24.0876 54.8936 22.1885 52.0753 22.3403 49.0439C22.7268 47.6719 24.9143 48.1624 24.6976 49.6045C25.3049 54.3204 30.3755 56.3329 34.4455 56.9299C38.9474 57.8787 44.0236 57.6783 47.8396 54.7955C49.8477 53.3001 51.3258 50.7873 50.9546 48.1947C50.8455 47.6299 51.0305 46.9544 51.5894 46.7133Z" fill="#283B2A"/>
</svg>
