<svg width="50" height="40" viewBox="0 0 50 40" fill="none" xmlns="http://www.w3.org/2000/svg">
<path d="M11.2099 0.964736C14.6553 -0.165631 18.3276 0.0903961 21.8961 0.0293178C24.8305 -0.0752683 27.7889 0.0736623 30.6219 0.907841C33.1275 1.53034 36.5006 1.44583 37.7355 4.2228C38.869 4.4211 40.089 4.40185 41.1544 4.86454C41.8715 5.74976 40.6466 6.67346 40.1239 7.33445C40.2361 8.11508 40.3823 8.74761 40.9067 9.38266C43.3059 10.9682 46.0051 9.30903 48.4051 8.61709C49.0184 8.24644 49.7539 8.89069 49.5104 9.56088C50.0032 9.76084 50.1378 10.3691 49.8511 10.8C49.2062 12.255 47.5649 12.7713 46.1256 13.0089C47.0547 13.4532 48.0594 13.715 49.0799 13.828C49.7173 13.9292 49.7987 14.8354 49.2926 15.1667C49.537 15.6771 49.7281 16.5364 49.0699 16.8141C47.6755 17.0769 46.3225 16.4903 44.9605 16.2787C43.7771 16.0804 42.7026 15.4997 41.8101 14.7057C42.9078 17.5379 44.3613 20.3274 44.5458 23.4173C44.8458 27.6702 42.7192 31.7875 39.6244 34.5762C35.7003 38.1681 30.3086 39.5478 25.1371 39.9C18.6883 40.2891 11.9113 39.6273 6.18298 36.401C2.84639 34.608 0.661615 31.078 0.182942 27.3405C-0.621495 22.0535 1.35719 16.8802 3.57604 12.1898C3.10235 12.1906 2.63947 11.7773 2.75747 11.2744C3.04916 10.6536 3.53448 10.1474 4.02728 9.6822C2.79653 9.84451 2.83891 8.21632 3.84363 7.92097C2.74085 6.87762 4.53421 5.68952 5.54558 5.61338C6.62592 3.30914 8.85723 1.74704 11.2099 0.964736ZM7.34725 5.33225C11.627 4.89466 15.9368 4.19938 20.244 4.75326C25.516 5.29042 30.7524 4.11152 36.0219 4.15754C35.0845 3.15017 33.6585 2.94685 32.3754 2.71927C30.4391 2.45321 28.5776 1.79055 26.633 1.57301C23.1534 1.36133 19.6573 1.46591 16.1744 1.56213C12.9368 1.6868 9.37995 2.58708 7.34725 5.33225ZM19.6506 12.0467C16.7944 12.1906 13.9689 12.9629 11.0969 12.6566C9.14477 12.4801 7.23423 11.9078 5.26303 11.9463C3.21952 16.3205 1.14195 20.9834 1.45691 25.9315C1.65137 28.6683 2.60955 31.4503 4.57659 33.4107C5.86137 34.6649 7.45279 35.5434 9.08659 36.2479C14.5049 38.5103 20.5216 38.8692 26.308 38.3497C29.6197 38.0158 32.9388 37.1967 35.8532 35.5359C40.4422 32.9898 43.9982 27.6777 42.9652 22.2551C42.0635 18.3026 40.1289 14.6931 38.6904 10.9264C32.436 12.3412 25.9914 11.6258 19.6506 12.0467Z" fill="white"/>
<path d="M25.9856 16.2477C26.4476 15.9967 26.9895 16.4 26.9994 16.8986C27.3053 19.6698 27.518 22.4651 27.4 25.2538C27.3435 26.6963 26.5075 28.2015 25.0457 28.5805C22.6049 29.3084 20.0196 27.6936 19.0407 25.4396C17.9371 22.9789 18.1905 20.1893 18.1348 17.5588C18.0542 16.6962 19.467 16.5255 19.5493 17.3965C19.7313 20.4412 19.0324 24.223 21.6019 26.4737C22.5326 27.2577 23.9379 27.5798 25.0498 27.0067C25.8177 26.5984 25.9523 25.6261 26.0014 24.8397C26.0454 22.2141 25.8543 19.5886 25.5775 16.979C25.5127 16.6686 25.7064 16.3682 25.9856 16.2477Z" fill="white"/>
<path d="M31.8219 16.4468C32.8399 15.9791 33.2263 17.8307 32.1178 17.8349C31.364 17.8993 31.1006 16.6903 31.8219 16.4468Z" fill="white"/>
<path d="M11.46 16.8576C12.4107 16.4393 12.8836 18.0876 11.9304 18.3294C11.0462 18.6113 10.6448 17.1555 11.46 16.8576Z" fill="white"/>
<path d="M31.064 27.8885C31.4413 27.7154 31.9898 27.9229 32.0679 28.3579C32.3471 29.9342 31.8169 31.5901 30.8006 32.8016C28.9848 34.9092 26.1019 35.8128 23.3919 35.7283C20.8332 35.5852 18.1465 35.1853 15.9575 33.7504C14.5041 32.7723 13.3606 31.0897 13.452 29.28C13.6847 28.4608 15.0019 28.7537 14.8714 29.6146C15.237 32.4301 18.2902 33.6316 20.7409 33.988C23.4518 34.5544 26.5083 34.4348 28.8061 32.7137C30.0152 31.821 30.9053 30.3208 30.6817 28.7729C30.6161 28.4357 30.7274 28.0325 31.064 27.8885Z" fill="white"/>
</svg>
